<?xml version="1.0" encoding="UTF-8"?><svg id="Layer_2" xmlns="http://www.w3.org/2000/svg" viewBox="0 0 23.5 47.5"><defs><style>.cls-1{fill:#5a38b2;}</style></defs><g id="Layer_1-2"><path class="cls-1" d="M18.62,1.39h-.6c-.06-.78-.7-1.39-1.49-1.39s-1.5,.67-1.5,1.5v3c0,.83,.67,1.5,1.5,1.5s1.5-.67,1.5-1.5v-.11h.59c1.04,0,1.88,.85,1.88,1.89v11.29c0,4.16-3.38,7.54-7.53,7.54s-7.53-3.38-7.53-7.54V6.28c0-1.04,.85-1.89,1.88-1.89h.69v.11c0,.83,.67,1.5,1.5,1.5s1.5-.67,1.5-1.5V1.5c0-.83-.67-1.5-1.5-1.5s-1.43,.61-1.49,1.39h-.7C4.64,1.39,2.45,3.58,2.45,6.28v11.29c0,5.3,3.93,9.68,9.03,10.42v11.61c0,1.04-.85,1.89-1.88,1.89h-.84c-.62-1.75-2.27-3.02-4.24-3.02-2.49,0-4.51,2.02-4.51,4.52s2.02,4.52,4.51,4.52c1.96,0,3.62-1.26,4.24-3.02h.84c2.69,0,4.88-2.19,4.88-4.89v-11.61c5.09-.73,9.03-5.12,9.03-10.42V6.28c0-2.7-2.19-4.89-4.88-4.89ZM4.51,44.5c-.83,0-1.51-.68-1.51-1.52s.68-1.52,1.51-1.52,1.51,.68,1.51,1.52-.68,1.52-1.51,1.52Z"/></g></svg>