<?xml version="1.0" encoding="UTF-8"?><svg id="Layer_2" xmlns="http://www.w3.org/2000/svg" viewBox="0 0 38 38"><defs><style>.cls-1{fill:#5a38b2;}</style></defs><g id="Layer_1-2"><path class="cls-1" d="M36.42,11.88h-10.29V1.58c0-.87-.71-1.58-1.58-1.58H13.46c-.87,0-1.58,.71-1.58,1.58V11.88H1.58c-.87,0-1.58,.71-1.58,1.58v11.08c0,.87,.71,1.58,1.58,1.58H11.88v10.29c0,.87,.71,1.58,1.58,1.58h11.08c.87,0,1.58-.71,1.58-1.58v-10.29h10.29c.87,0,1.58-.71,1.58-1.58V13.46c0-.87-.71-1.58-1.58-1.58Z"/></g></svg>