<?xml version="1.0" encoding="UTF-8"?><svg id="Layer_2" xmlns="http://www.w3.org/2000/svg" viewBox="0 0 36 32"><defs><style>.cls-1{fill:#5a38b2;}</style></defs><g id="Layer_1-2"><path class="cls-1" d="M32.43,0H3.57C1.6,0,0,1.56,0,3.47V28.53c0,1.92,1.6,3.47,3.57,3.47h28.87c1.97,0,3.57-1.56,3.57-3.47V3.47c0-1.92-1.6-3.47-3.57-3.47Zm-.97,9.22l-1.27,4.64c-.18,.67-.81,1.06-1.41,.87h0c-2.55-.8-5.11-1.31-7.68-1.54l-2.81-3.76c-.04-.05-.09-.1-.14-.13-.06-.03-.12-.06-.19-.06-.13-.02-.26,0-.37,.07-.06,.03-.11,.08-.14,.13l-2.86,3.8c-2.39,.25-4.77,.74-7.15,1.48-.6,.19-1.23-.19-1.41-.87l-1.27-4.64c-.19-.7,.17-1.44,.79-1.63,8.34-2.65,16.78-2.65,25.12,0,.62,.2,.98,.94,.79,1.63Z"/></g></svg>