<?xml version="1.0" encoding="UTF-8"?><svg id="Layer_2" xmlns="http://www.w3.org/2000/svg" viewBox="0 0 46 24"><defs><style>.cls-1{fill:#5a38b2;}</style></defs><g id="Layer_1-2"><g><path class="cls-1" d="M37,0h-1c-1.1,0-2,.9-2,2V10H12V2c0-1.1-.9-2-2-2h-1c-1.1,0-2,.9-2,2V22c0,1.1,.9,2,2,2h1c1.1,0,2-.9,2-2V14h22v8c0,1.1,.9,2,2,2h1c1.1,0,2-.9,2-2V2c0-1.1-.9-2-2-2Z"/><rect class="cls-1" x="41" y="4.2" width="5" height="15.6" rx="2" ry="2"/><rect class="cls-1" y="4.2" width="5" height="15.6" rx="2" ry="2"/></g></g></svg>