<?xml version="1.0" encoding="UTF-8"?><svg id="Layer_2" xmlns="http://www.w3.org/2000/svg" viewBox="0 0 12.01 48"><defs><style>.cls-1{fill:#5a38b2;}</style></defs><g id="Layer_1-2"><path class="cls-1" d="M9.5,5h-.49V2h2c.55,0,.99-.45,.99-1S11.56,0,11.01,0h0s-10,0-10,0h0s0,0-.01,0C.45,0,0,.45,0,1s.45,1,1,1c0,0,0,0,.01,0h0s2,0,2,0v3h-.49C1.14,5,.01,6.31,.01,7.93v5.07H5.02c.55,0,.99,.45,.99,1s-.45,.99-.99,1h0s-5.01,0-5.01,0v4H5.02c.55,0,.99,.45,.99,1s-.45,.99-.99,1h0s-5.01,0-5.01,0v4H5.02c.55,0,.99,.45,.99,1s-.45,.99-.99,1h0s-5.01,0-5.01,0v1c0,2.59,1.21,4.84,3,6.06v2.13c0,1.3,.84,2.4,2,2.82v8c0,.55,.45,1,1,1s1-.45,1-1v-8c1.16-.41,2-1.51,2-2.82v-2.13c1.79-1.21,3-3.47,3-6.06V7.93c0-1.62-1.12-2.93-2.51-2.93Zm-4.49,0V2h2v3h-2Z"/></g></svg>