<?xml version="1.0" encoding="UTF-8"?><svg id="Layer_2" xmlns="http://www.w3.org/2000/svg" viewBox="0 0 34 42.7"><defs><style>.cls-1{fill:#5a38b2;}</style></defs><g id="Layer_1-2"><g><path class="cls-1" d="M16.57,22.45H1.84c-1.02,0-1.84,.82-1.84,1.84v9.21c0,5.08,4.12,9.21,9.21,9.21s9.21-4.12,9.21-9.21v-9.21c0-1.02-.82-1.84-1.84-1.84Z"/><path class="cls-1" d="M33.31,5.72C31.39,1.02,26.01-1.24,21.3,.69l-8.52,3.49c-.94,.39-1.39,1.46-1.01,2.4l5.58,13.63c.39,.94,1.46,1.39,2.4,1.01l8.52-3.49c4.71-1.93,6.96-7.3,5.04-12.01Z"/><path class="cls-1" d="M3.68,16.92c1.02,0,1.84-.82,1.84-1.84s-.82-1.84-1.84-1.84-1.84,.82-1.84,1.84,.82,1.84,1.84,1.84Z"/><circle class="cls-1" cx="11.05" cy="16.92" r="1.84"/><path class="cls-1" d="M10.13,12.32c1.02,0,1.84-.82,1.84-1.84s-.82-1.84-1.84-1.84-1.84,.82-1.84,1.84,.82,1.84,1.84,1.84Z"/><path class="cls-1" d="M3.68,9.56c1.02,0,1.84-.82,1.84-1.84s-.82-1.84-1.84-1.84-1.84,.82-1.84,1.84,.82,1.84,1.84,1.84Z"/></g></g></svg>