<?xml version="1.0" encoding="UTF-8"?><svg id="Layer_2" xmlns="http://www.w3.org/2000/svg" viewBox="0 0 30 38"><defs><style>.cls-1{fill:#5a38b2;fill-rule:evenodd;}</style></defs><g id="Layer_1-2"><path class="cls-1" d="M29.98,12.51c0-.07,0-.14-.01-.21,0-.03,0-.07,0-.1,0-.02,0-.05,0-.07,0-.07-.01-.15-.02-.22-.01-.15-.03-.3-.05-.45,0-.02,0-.04,0-.06,0-.02,0-.04,0-.06-.02-.17-.05-.34-.08-.51,0-.01,0-.03,0-.04-.09-.52-.21-1.02-.38-1.51,0,0,0-.02,0-.03,0,0,0-.02,0-.03,0-.01,0-.02-.01-.03,0-.01,0-.02-.01-.03-.76-2.32-2.15-4.35-3.98-5.91-.07-.07-.11-.1-.11-.1-.03-.02-.05-.04-.08-.07-.02-.01-.03-.03-.05-.04-.01,0-.02-.02-.04-.03-.01,0-.02-.02-.04-.03-.14-.11-.28-.22-.42-.32-.01,0-.02-.02-.04-.03-.01,0-.02-.02-.04-.03-.16-.11-.31-.23-.48-.33,0,0,0,0,0,0,0,0-.01,0-.02-.01-.16-.11-.33-.21-.5-.31-.05-.03-.1-.06-.16-.09-.02,0-.03-.02-.05-.03-.09-.05-.18-.1-.28-.15-.1-.05-.2-.11-.3-.16l-.18-.09c-.12-.06-.24-.12-.36-.17-.01,0-.02-.01-.03-.02-.01,0-.02,0-.03-.02C20.46,.44,18.56,0,16.55,0c-.03,0-.06,0-.1,0-.03,0-.06,0-.09,0h0c-.14,0-.23,0-.23,0-.04,0-.08,0-.12,0-.03,0-.05,0-.08,0-.06,0-.13,0-.19,.01-.16,0-.33,.02-.49,.04-.03,0-.06,0-.09,.01-.03,0-.06,0-.09,.01-.16,.02-.32,.04-.48,.06-.06,0-.12,.02-.18,.03-.16,.02-.32,.05-.48,.08-.06,.01-.12,.02-.18,.04-.16,.03-.32,.07-.47,.11-.06,.01-.11,.03-.17,.04-.16,.04-.32,.08-.47,.13-.03,0-.05,.02-.08,.02-.03,0-.05,.02-.08,.02-.16,.05-.31,.1-.47,.15-.02,0-.05,.02-.07,.03-.02,0-.05,.02-.07,.03-.16,.06-.31,.12-.47,.18l-.14,.06c-.16,.07-.31,.13-.46,.2-.04,.02-.08,.04-.12,.06-.16,.07-.31,.15-.46,.23-.02,.01-.04,.02-.06,.03s-.04,.02-.06,.03c-.15,.08-.31,.17-.46,.26,0,0-.02,.01-.03,.02-.02,.01-.05,.03-.07,.04-.15,.09-.3,.19-.45,.28-.01,0-.03,.02-.04,.03-.01,0-.03,.02-.04,.03-.15,.1-.3,.2-.45,.31,0,0-.02,.01-.03,.02-.01,.01-.03,.02-.04,.03-.15,.11-.3,.22-.44,.34-.01,0-.02,.02-.03,.03-.01,0-.02,.02-.03,.03-.15,.12-.29,.24-.43,.37-.02,.01-.03,.03-.05,.04h0c-.14,.13-.28,.26-.42,.4-.01,.01-.03,.03-.04,.04-.14,.14-.28,.28-.41,.42,0,0-.01,.01-.02,.02,0,0-.01,.01-.02,.02-.14,.15-.27,.3-.4,.45,0,0-.01,.01-.02,.02,0,0,0,0,0,0-.13,.16-.26,.31-.38,.47,0,0,0,0-.01,.01,0,0,0,0,0,0-.13,.16-.25,.33-.36,.5,0,0,0,0,0,0,0,0,0,0,0,0-.12,.17-.23,.35-.34,.52,0,0,0,0,0,0s0,0,0,0c-.11,.18-.22,.36-.32,.55h0c-1.03,1.86-1.62,4-1.62,6.26v3.39L.11,22.21c-.34,.64,.14,1.4,.88,1.4h1.4c.39,0,.71,.31,.71,.69v6.7c0,1.21,1.02,2.18,2.26,2.15l4.71-.13c.74-.02,1.34,.56,1.34,1.28v2.26c0,.79,.66,1.43,1.47,1.43h12.96c.81,0,1.47-.64,1.47-1.43v-14.54c0-.61,.17-1.2,.51-1.71,0,0,.01-.02,.01-.02h0c.24-.36,.47-.73,.67-1.12,0-.02,.02-.04,.03-.06s.02-.04,.03-.06c.06-.12,.12-.24,.18-.35,0-.01,.01-.03,.02-.04,0,0,0-.02,.01-.03,.11-.22,.2-.45,.3-.68,.01-.03,.02-.05,.03-.08,.01-.03,.02-.05,.03-.08,.04-.11,.08-.21,.12-.32,.02-.07,.05-.14,.07-.21,0-.03,.02-.05,.03-.08,.03-.08,.05-.15,.08-.23,.04-.13,.08-.26,.11-.39,.03-.11,.06-.23,.09-.34,.02-.1,.05-.2,.07-.3,.02-.09,.04-.18,.06-.27,.02-.12,.04-.23,.06-.35,0-.03,.01-.06,.02-.1,0-.04,.01-.08,.02-.12,.03-.18,.05-.36,.07-.55,0-.07,.01-.13,.02-.2,.01-.14,.02-.28,.03-.41h0c0-.08,0-.14,.01-.2,0-.19,.01-.39,.01-.58v-.02c0-.21,0-.42-.02-.63Zm-5.88,6.19c-.18,.19-.42,.28-.66,.28s-.48-.09-.66-.28l-2.15-2.18-2.15,2.18c-.37,.37-.96,.37-1.33,0l-2.15-2.18-2.15,2.18c-.37,.37-.96,.37-1.33,0l-2.81-2.85c-.37-.37-.37-.97,0-1.34s.96-.37,1.33,0l2.15,2.18,2.15-2.18c.37-.37,.96-.37,1.33,0l2.15,2.18,2.15-2.18c.37-.37,.96-.37,1.33,0l2.81,2.85c.37,.37,.37,.97,0,1.34Zm0-6.89c-.18,.19-.42,.28-.66,.28s-.48-.09-.66-.28l-2.15-2.18-2.15,2.18c-.37,.37-.96,.37-1.33,0l-2.15-2.18-2.15,2.18c-.37,.37-.96,.37-1.33,0l-2.81-2.85c-.37-.37-.37-.97,0-1.34s.96-.37,1.33,0l2.15,2.18,2.15-2.18c.37-.37,.96-.37,1.33,0l2.15,2.18,2.15-2.18c.37-.37,.96-.37,1.33,0l2.81,2.85c.37,.37,.37,.97,0,1.34Z"/></g></svg>