<?xml version="1.0" encoding="UTF-8"?><svg id="Layer_2" xmlns="http://www.w3.org/2000/svg" viewBox="0 0 41.5 40"><defs><style>.cls-1{fill:#5a38b2;}</style></defs><g id="Layer_1-2"><path class="cls-1" d="M38.5,0H16.5c-1.65,0-3,1.35-3,3v5.5C6.06,8.5,0,14.56,0,22s6.06,13.5,13.5,13.5h2.26c.89,2.59,4.01,4.5,7.74,4.5s6.85-1.91,7.74-4.5h.76c.83,0,1.5-.67,1.5-1.5s-.67-1.5-1.5-1.5h-.76c-.89-2.59-4.01-4.5-7.74-4.5s-6.85,1.91-7.74,4.5h-2.26c-5.79,0-10.5-4.71-10.5-10.5S7.71,11.5,13.5,11.5v5.5c0,1.65,1.35,3,3,3h22c1.65,0,3-1.35,3-3V3c0-1.65-1.35-3-3-3Zm-15,31c2.86,0,5,1.58,5,3s-2.14,3-5,3-5-1.58-5-3,2.14-3,5-3Zm10.21-20.23l-5.3,5.25c-.26,.26-.57,.36-.94,.36s-.68-.1-.94-.36l-5.25-5.25c-1.66-1.65-1.66-4.32,0-5.92,.83-.82,1.92-1.24,3.01-1.24s2.18,.41,3.01,1.24l.21,.21,.21-.21c.83-.82,1.87-1.24,2.96-1.24s2.18,.41,3.01,1.24c1.66,1.65,1.66,4.32,0,5.92Z"/></g></svg>