<?xml version="1.0" encoding="UTF-8"?><svg id="Layer_2" xmlns="http://www.w3.org/2000/svg" viewBox="0 0 32 32"><defs><style>.cls-1{fill:#5a38b2;fill-rule:evenodd;}</style></defs><g id="Layer_1-2"><path class="cls-1" d="M14.87,6.56c-4.02-.13-5.56-2.25-5.43-5.73,.02-.45,.41-.81,.9-.83,3.07-.1,5.17,.81,5.92,3.14,.73-1.06,1.81-2.11,3.36-2.97,.58-.32,1.33-.15,1.68,.38,.35,.53,.16,1.22-.42,1.54-2.17,1.2-3.07,2.82-3.45,4.15-.19,.67-.25,1.27-.26,1.7v.02c12.95-5.07,20.48,10.62,9.59,21.14-3.87,3.74-7.79,3.05-9.65,2.38-.71-.25-1.52-.25-2.23,0h0c-1.86,.66-5.78,1.35-9.65-2.38C1.4,25.39-.15,21.05,.01,17.19,.22,12.24,3.27,8.09,7.95,7.17c2-.4,4.29-.21,6.78,.76v-.03c0-.37,.04-.82,.13-1.34Zm-5.56,5.65c.3-.06,.61-.09,.94-.09,.56,0,1.02-.42,1.02-.94s-.46-.94-1.02-.94c-.47,0-.92,.04-1.36,.13h0c-2.97,.59-5.07,3.16-5.8,6.25-.12,.5,.23,1,.78,1.11,.55,.11,1.09-.21,1.21-.72,.63-2.67,2.33-4.44,4.24-4.82Z"/></g></svg>