<?xml version="1.0" encoding="UTF-8"?><svg id="Layer_2" xmlns="http://www.w3.org/2000/svg" viewBox="0 0 30 40"><defs><style>.cls-1{fill:#5a38b2;}</style></defs><g id="Layer_1-2"><path class="cls-1" d="M27.36,16.59L16.4,.7c-.12-.18-.28-.34-.47-.45-.18-.12-.39-.19-.61-.23-.42-.07-.84,.02-1.2,.24-.19,.11-.36,.26-.47,.45L2.65,16.59C1.1,18.84,.19,21.46,.03,24.17c-.16,2.72,.42,5.43,1.69,7.84,1.27,2.41,3.18,4.43,5.52,5.84,2.34,1.41,5.02,2.15,7.76,2.15s5.42-.74,7.76-2.15c2.34-1.41,4.25-3.43,5.52-5.84,1.27-2.41,1.86-5.12,1.69-7.84-.16-2.72-1.07-5.34-2.62-7.58h.01Z"/></g></svg>