<?xml version="1.0" encoding="UTF-8"?><svg id="Layer_2" xmlns="http://www.w3.org/2000/svg" viewBox="0 0 48 20"><defs><style>.cls-1{fill:#5a38b2;fill-rule:evenodd;}</style></defs><g id="Layer_1-2"><path class="cls-1" d="M46.83,8.17h-2.79c-.86-4.64-5.26-8.17-10.1-8.17H14.55C9.62,0,4.84,3.48,3.97,8.17H1.17c-.65,0-1.17,.52-1.17,1.17v1.56c0,.64,.52,1.25,1.17,1.25h2.83c.92,4.56,5.45,7.85,10.29,7.85,2.54,0,4.91-.84,7.03-2.11,1.69-1.01,3.81-1.01,5.5,0,2.79,1.6,6.01,2.62,9.31,1.86,3.77-.84,7.01-3.83,7.78-7.6h2.83c.65,0,1.25-.6,1.25-1.25v-1.56c0-.64-.52-1.17-1.17-1.17ZM13.56,11.51v1.35h0c0,.09,.06,.17,.16,.17h4.71c.1,0,.17-.07,.17-.17v-1.3c0-.09-.07-.17-.17-.17h-3l3-4.11c.04-.06,.07-.12,.07-.19v-1.35c0-.09-.07-.17-.17-.17h-4.49c-.1,0-.16,.07-.16,.17v1.3c0,.09,.06,.17,.16,.17h2.78l-2.99,4.11c-.04,.06-.06,.12-.06,.19Zm8.14,0v1.35h0c0,.09,.06,.17,.16,.17h4.71c.1,0,.17-.07,.17-.17v-1.3c0-.09-.07-.17-.17-.17h-3l3-4.11c.04-.06,.07-.12,.07-.19v-1.35c0-.09-.07-.17-.17-.17h-4.49c-.1,0-.16,.07-.16,.17v1.3c0,.09,.06,.17,.16,.17h2.78l-2.99,4.11c-.04,.06-.06,.12-.06,.19Zm8.14,1.35v-1.35c0-.08,.02-.13,.07-.19l2.99-4.11h-2.78c-.1,0-.16-.08-.16-.17v-1.3c0-.1,.06-.17,.16-.17h4.49c.1,0,.17,.08,.17,.17v1.35c0,.08-.02,.13-.06,.19l-3,4.11h3c.1,0,.17,.08,.17,.17v1.3c0,.1-.08,.17-.17,.17h-4.71c-.1,0-.16-.08-.16-.17h0Z"/></g></svg>