<?xml version="1.0" encoding="UTF-8"?><svg id="Layer_2" xmlns="http://www.w3.org/2000/svg" viewBox="0 0 36 32"><defs><style>.cls-1{fill:#5a38b2;}</style></defs><g id="Layer_1-2"><path class="cls-1" d="M18,19.55c3.42,.02,6.82-.56,10.04-1.72L6.08,2.52C2.37,4.32,.02,6.93,.02,9.76,0,15.07,8.24,19.55,18,19.55Z"/><path class="cls-1" d="M0,22.22C0,27.53,8.26,32,18,32s18-4.46,18-9.78v-6.36c-3.49,3.78-10.16,6.29-18,6.29S3.48,19.65,0,15.87v6.36Z"/><path class="cls-1" d="M18,0c-3.06-.01-6.1,.45-9.02,1.36l21.81,15.21c3.2-1.78,5.21-4.18,5.21-6.8C36,4.47,27.75,0,18,0Z"/></g></svg>