<?xml version="1.0" encoding="UTF-8"?><svg id="Layer_2" xmlns="http://www.w3.org/2000/svg" viewBox="0 0 1500 519.97"><defs><style>.cls-1{fill:#5a38b2;}</style></defs><g id="Layer_1-2"><g><path class="cls-1" d="M401.54,251.78c0-65.93,51.72-118.22,115.95-118.22,35.24,0,63.08,15.35,81.27,39.79v-21.88c0-9.89,8.02-17.9,17.9-17.9h0c9.89,0,17.9,8.02,17.9,17.9v200.06c0,9.89-8.02,17.9-17.9,17.9h0c-9.89,0-17.9-8.02-17.9-17.9v-21.88c-18.19,24.44-46.03,39.78-81.27,39.78-64.22,0-115.95-52.29-115.95-117.65Zm197.22,.57c0-49.45-38.08-82.98-81.27-82.98s-80.14,35.81-80.14,82.41,35.8,81.84,80.14,81.84,81.27-33.53,81.27-81.27Z"/><path class="cls-1" d="M916.22,351.53V17.9c0-9.89,8.02-17.9,17.9-17.9h0c9.89,0,17.9,8.02,17.9,17.9V351.53c0,9.89-8.02,17.9-17.9,17.9h0c-9.89,0-17.9-8.02-17.9-17.9Z"/><path class="cls-1" d="M1016.78,252.92c0-65.93,49.45-119.35,111.97-119.35,54.7,0,99.4,40.9,109.72,95.3,2.38,12.55-7.63,24.06-20.4,24.06h-167.18c0,44.9,35.24,80.71,77.87,80.71,26.32,0,49.94-13.53,64.02-32.55,3.29-4.45,8.35-7.24,13.89-7.24h0c13.4,0,21.08,15.03,13.47,26.07-20.16,29.28-52.63,49.52-91.38,49.52-62.52,0-111.97-52.86-111.97-116.51Zm184.15-32.97c-12.5-30.12-39.22-50.58-72.18-50.58s-60.25,21.03-72.18,50.58h144.36Z"/><path class="cls-1" d="M1296.35,425.31h0c7.08,0,13.68,3.97,16.64,10.41,12.78,27.85,40.11,46.43,71.07,46.43,42.63,0,80.14-35.81,80.14-81.84v-57.02c-18.76,18.76-35.8,26.14-61.38,26.14-56.84,0-100.6-42.63-100.6-100.03v-117.93c0-9.89,8.02-17.9,17.9-17.9h0c9.89,0,17.9,8.02,17.9,17.9v117.93c0,35.24,27.85,63.66,64.79,63.66,33.53,0,61.38-28.42,61.38-60.25v-121.35c0-9.89,8.02-17.9,17.9-17.9h0c9.89,0,17.9,8.02,17.9,17.9v249.41c0,65.36-53.42,117.08-115.94,117.08-45.06,0-85.37-27.31-104.08-67.4-5.49-11.77,3.39-25.24,16.38-25.24Z"/><path class="cls-1" d="M310.98,148.56c-15.8-12.05-35.56-19.34-56.95-19.72-.73-.02-1.45-.04-2.18-.04h-.26c-.77,0-1.56,0-2.34,.04-19.56,.4-40.06,6.08-54.46,16.26-8.5,5.71-16.06,12.89-22.41,21.35-6.1-8.09-13.26-14.98-21.3-20.58-.24-.18-.48-.35-.75-.51-14.47-10.33-34.17-16.13-53.91-16.52-.86-.02-1.72-.04-2.6-.04h-.33c-.62,0-1.23,0-1.85,.04-21.39,.37-41.15,7.67-56.95,19.7C12.38,165.53,0,192.01,0,221.97v130.13c0,10.13,8.21,18.34,18.34,18.34h.02c10.13,0,18.34-8.21,18.34-18.34V223.71c0-31.04,24.59-56.58,55.76-58.16,.9-.04,1.83-.07,2.75-.07h.29c32.34,.33,58.23,26.39,58.23,58.23v128.1c0,10.29,8.34,18.63,18.63,18.63h0c10.29,0,18.63-8.34,18.63-18.63V223.71c0-31.86,25.89-57.92,58.23-58.23h.57c.84,0,1.65,.02,2.47,.07,31.18,1.59,55.76,27.12,55.76,58.16v128.39c0,10.13,8.21,18.34,18.34,18.34h0c10.13,0,18.34-8.21,18.34-18.34V221.97c0-29.96-11.45-56.42-33.73-73.41Z"/><g><path class="cls-1" d="M544.36,517.96v-83.73h12.71v11.3c3.43-7.47,11.3-13.32,22.19-13.32s18.76,5.45,24.61,13.92c6.25-8.48,15.54-13.92,27.64-13.92,16.95,0,32.08,10.9,32.08,31.88v53.87h-12.71v-52.05c0-14.33-9.08-20.98-20.18-20.98s-20.38,7.06-20.38,20.78v52.26h-12.71v-52.26c0-13.72-9.48-20.78-20.38-20.78-11.9,0-20.18,8.47-20.18,22.6v50.44h-12.71Z"/><path class="cls-1" d="M758.84,492.53h13.11c-5.85,15.54-20.17,27.44-38.13,27.44-22.8,0-40.75-17.75-40.75-42.97s17.96-44.79,40.15-44.79c24.61,0,41.36,21.19,41.36,46.21h-69.2c.61,18.16,13.72,28.45,28.45,28.45,11.3,0,20.18-6.05,25.02-14.33Zm-51.25-25.62h52.46c-3.63-12.11-13.32-21.59-26.23-21.59s-22.6,8.68-26.23,21.59Z"/><path class="cls-1" d="M885.15,397.71v120.25h-12.71v-12.31c-2.62,5.05-13.72,14.32-29.86,14.32-23,0-41.76-17.95-41.76-43.78s18.76-43.99,43.38-43.99c19.57,0,26.83,9.89,28.25,11.9v-46.4h12.71Zm-12.71,80.7v-4.64c0-16.34-13.72-28.45-29.46-28.45s-29.05,11.9-29.05,30.87,12.91,30.67,29.05,30.67,29.46-13.12,29.46-28.45Z"/><path class="cls-1" d="M941.45,517.96h-12.71v-71.02h-8.07v-12.71h20.78v83.73Zm-16.95-110.56c0-5.25,4.24-9.68,9.68-9.68s9.68,4.44,9.68,9.68-4.44,9.68-9.68,9.68-9.68-4.24-9.68-9.68Z"/><path class="cls-1" d="M1058.88,488.7c-6.25,21.19-23.4,31.27-40.75,31.27-22.8,0-41.97-17.95-41.97-43.78s19.57-43.99,41.97-43.99c18.36,0,34.7,11.1,40.75,31.48h-13.32c-5.25-13.12-15.74-18.36-27.44-18.36-15.74,0-28.85,13.32-28.85,30.87,0,18.56,13.11,30.67,28.85,30.67,12.1,0,22.6-5.45,27.44-18.16h13.32Z"/><path class="cls-1" d="M1169.45,433.22v84.74h-12.71v-12.31c-2.62,5.05-13.72,14.32-29.86,14.32-23,0-41.76-17.15-41.76-43.78,0-25.22,16.95-43.99,42.17-43.99,10.9,0,23,3.43,29.46,12.31v-11.3h12.71Zm-12.71,45.19v-4.64c0-16.34-12.11-28.45-29.46-28.45s-29.05,12.91-29.05,30.87c0,19.77,13.72,30.67,29.05,30.67,16.55,0,29.46-13.12,29.46-28.45Z"/><path class="cls-1" d="M1221.51,517.96h-12.71v-120.25h12.71v120.25Z"/></g><path class="cls-1" d="M709.23,351.53V150.52c0-9.89,8.02-17.9,17.9-17.9h0c9.89,0,17.9,8.02,17.9,17.9v23.02c11.94-19.89,38.08-48.88,80.71-48.88h9.38c9.89,0,17.9,8.02,17.9,17.9h0c0,9.89-8.02,17.9-17.9,17.9h-9.38c-43.76,0-80.71,38.65-80.71,81.27v109.79c0,9.89-8.02,17.9-17.9,17.9h0c-9.89,0-17.9-8.02-17.9-17.9Z"/></g></g></svg>