<?xml version="1.0" encoding="UTF-8"?><svg id="Layer_2" xmlns="http://www.w3.org/2000/svg" viewBox="0 0 526 526"><defs><style>.cls-1{fill:#5a38b2;}</style></defs><g id="Layer_1-2"><path class="cls-1" d="M494.96,188.06L337.92,31.05c-41.35-41.4-108.48-41.4-149.83,0L31.04,188.06c-41.39,41.4-41.39,108.49,0,149.89l157.04,157.01c41.35,41.4,108.48,41.4,149.83,0l157.04-157.01c41.39-41.4,41.39-108.49,0-149.89Zm-79.56,165.46c0,4.51-1.81,8.54-4.78,11.5-2.92,2.92-6.99,4.73-11.45,4.73-8.98,0-16.27-7.25-16.27-16.23v-113.71c0-27.51-21.76-50.15-49.4-51.52-.71-.04-1.42-.09-2.17-.09h-.53c-28.61,.31-51.56,23.4-51.56,51.61v113.44c0,4.56-1.86,8.67-4.82,11.68-3.01,2.96-7.12,4.82-11.67,4.82-9.11,0-16.5-7.39-16.5-16.5v-113.44c0-28.22-22.91-51.3-51.57-51.61h-.27c-.8,0-1.64,.04-2.43,.09-27.6,1.37-49.4,24.02-49.4,51.52v113.71c0,8.98-7.25,16.23-16.23,16.23h-.04c-8.93,0-16.23-7.25-16.23-16.23v-115.26c0-26.54,10.97-50.02,30.74-65.06,13.97-10.66,31.49-17.12,50.41-17.43,.58-.04,1.11-.04,1.64-.04h.31c.8,0,1.55,0,2.3,.04,17.47,.31,34.94,5.48,47.76,14.6,.22,.18,.44,.31,.66,.49,7.12,4.95,13.44,11.06,18.84,18.22,5.62-7.52,12.34-13.89,19.86-18.93,12.78-9.02,30.91-14.06,48.25-14.37,.66-.04,1.37-.04,2.08-.04h.22c.66,0,1.28,0,1.95,.04,18.93,.31,36.44,6.77,50.42,17.43,19.72,15.08,29.89,38.52,29.89,65.06v115.26Z"/></g></svg>